<svg width="1124" height="291" viewBox="0 0 1124 291" fill="none" xmlns="http://www.w3.org/2000/svg">
<path d="M756.475 252.949C711.559 252.949 675 216.412 675 171.475C675 126.537 711.537 90 756.475 90C801.412 90 837.949 126.537 837.949 171.475C837.949 216.412 801.412 252.949 756.475 252.949ZM756.475 104.225C719.378 104.225 689.203 134.4 689.203 171.497C689.203 208.594 719.378 238.769 756.475 238.769C793.572 238.769 823.746 208.594 823.746 171.497C823.746 134.4 793.572 104.225 756.475 104.225Z" fill="#0C0C10"/>
<path d="M930.916 252.949C886.001 252.949 849.441 216.412 849.441 171.475C849.441 126.537 885.978 90 930.916 90C975.853 90 1012.39 126.537 1012.39 171.475C1012.39 216.412 975.853 252.949 930.916 252.949ZM930.916 104.225C893.819 104.225 863.644 134.4 863.644 171.497C863.644 208.594 893.819 238.769 930.916 238.769C968.013 238.769 998.188 208.594 998.188 171.497C998.188 134.4 968.013 104.225 930.916 104.225Z" fill="#0C0C10"/>
<path d="M804.549 162.715H708.401V180.278H804.549V162.715Z" fill="#0C0C10"/>
<path d="M978.989 162.715H939.697V123.423H922.134V162.715H882.842V180.278H922.134V219.57H939.697V180.278H978.989V162.715Z" fill="#0C0C10"/>
<path d="M25.2756 41.2727H55.4432L126.378 214.533H128.824L199.759 41.2727H229.926V250H206.281V91.4162H204.243L139.016 250H116.186L50.9588 91.4162H48.9205V250H25.2756V41.2727ZM334.368 253.261C319.284 253.261 306.273 249.932 295.334 243.273C284.463 236.547 276.071 227.17 270.16 215.144C264.317 203.05 261.395 188.985 261.395 172.95C261.395 156.915 264.317 142.783 270.16 130.553C276.071 118.254 284.293 108.674 294.824 101.812C305.424 94.8814 317.79 91.4162 331.922 91.4162C340.076 91.4162 348.127 92.7751 356.077 95.4929C364.026 98.2107 371.262 102.627 377.785 108.742C384.308 114.789 389.506 122.807 393.379 132.795C397.251 142.783 399.188 155.081 399.188 169.689V179.881H278.517V159.089H374.728C374.728 150.257 372.961 142.375 369.428 135.445C365.963 128.514 361.003 123.045 354.548 119.036C348.161 115.027 340.619 113.023 331.922 113.023C322.342 113.023 314.053 115.401 307.054 120.157C300.124 124.845 294.79 130.96 291.053 138.502C287.316 146.044 285.448 154.129 285.448 162.759V176.619C285.448 188.442 287.486 198.464 291.563 206.685C295.708 214.838 301.449 221.055 308.787 225.336C316.125 229.549 324.652 231.655 334.368 231.655C340.687 231.655 346.395 230.772 351.49 229.005C356.654 227.17 361.105 224.453 364.842 220.852C368.579 217.183 371.466 212.63 373.505 207.195L396.742 213.717C394.296 221.599 390.185 228.529 384.41 234.509C378.634 240.42 371.5 245.04 363.007 248.369C354.514 251.631 344.968 253.261 334.368 253.261ZM451.219 155.828V250H427.166V93.4545H450.403V117.915H452.442C456.111 109.965 461.682 103.578 469.156 98.7543C476.63 93.8622 486.278 91.4162 498.101 91.4162C508.7 91.4162 517.975 93.5904 525.924 97.9389C533.874 102.219 540.057 108.742 544.473 117.507C548.89 126.204 551.098 137.211 551.098 150.528V250H527.046V152.159C527.046 139.861 523.852 130.281 517.465 123.418C511.078 116.488 502.314 113.023 491.171 113.023C483.493 113.023 476.63 114.687 470.583 118.017C464.604 121.346 459.882 126.204 456.417 132.591C452.951 138.978 451.219 146.723 451.219 155.828ZM654.521 93.4545V113.838H573.395V93.4545H654.521ZM597.039 55.9489H621.092V205.156C621.092 211.951 622.077 217.047 624.048 220.444C626.086 223.773 628.668 226.015 631.793 227.17C634.987 228.258 638.35 228.801 641.883 228.801C644.533 228.801 646.707 228.665 648.406 228.393C650.105 228.054 651.463 227.782 652.483 227.578L657.375 249.185C655.744 249.796 653.468 250.408 650.546 251.019C647.625 251.699 643.922 252.038 639.437 252.038C632.643 252.038 625.984 250.578 619.461 247.656C613.007 244.734 607.639 240.284 603.358 234.305C599.146 228.326 597.039 220.784 597.039 211.679V55.9489Z" fill="#0C0C10"/>
<path d="M1039.01 250V93.4545H1062.25V117.099H1063.88C1066.74 109.354 1071.9 103.069 1079.37 98.2447C1086.85 93.4206 1095.27 91.0085 1104.65 91.0085C1106.42 91.0085 1108.62 91.0425 1111.27 91.1104C1113.92 91.1784 1115.93 91.2803 1117.29 91.4162V115.876C1116.47 115.673 1114.6 115.367 1111.68 114.959C1108.83 114.484 1105.8 114.246 1102.61 114.246C1095 114.246 1088.21 115.842 1082.23 119.036C1076.32 122.161 1071.63 126.51 1068.16 132.081C1064.77 137.585 1063.07 143.87 1063.07 150.936V250H1039.01Z" fill="#0C0C10"/>
</svg>
