<svg width="2492" height="1204" viewBox="0 0 2492 1204" fill="none" xmlns="http://www.w3.org/2000/svg">
<path d="M601.673 1203.35C269.984 1203.35 0 933.528 0 601.673C0 269.818 269.818 0 601.673 0C933.528 0 1203.35 269.818 1203.35 601.673C1203.35 933.528 933.528 1203.35 601.673 1203.35ZM601.673 105.048C327.719 105.048 104.883 327.885 104.883 601.839C104.883 875.793 327.719 1098.63 601.673 1098.63C875.627 1098.63 1098.46 875.793 1098.46 601.839C1098.46 327.885 875.627 105.048 601.673 105.048Z" fill="#11111A"/>
<path d="M956.691 536.989H246.66V666.688H956.691V536.989Z" fill="#11111A"/>
<path d="M1889.73 1203.35C1558.04 1203.35 1288.05 933.528 1288.05 601.673C1288.05 269.818 1557.87 0 1889.73 0C2221.58 0 2491.4 269.818 2491.4 601.673C2491.4 933.528 2221.58 1203.35 1889.73 1203.35ZM1889.73 105.048C1615.77 105.048 1392.94 327.885 1392.94 601.839C1392.94 875.793 1615.77 1098.63 1889.73 1098.63C2163.68 1098.63 2386.52 875.793 2386.52 601.839C2386.52 327.885 2163.68 105.048 1889.73 105.048Z" fill="#11111A"/>
<path d="M2244.73 536.988H1954.56V246.822H1824.86V536.988H1534.7V666.686H1824.86V956.852H1954.56V666.686H2244.73V536.988Z" fill="#11111A"/>
</svg>
